<svg xmlns="http://www.w3.org/2000/svg" fill="none" viewBox="0 0 24 24"><path fill="#2A34F5" d="M0 0h6.53c.235 0 .411.059.529.235 2.706 3.647 5.47 7.294 8.176 10.942.177.235.118.352 0 .529C12.53 15.353 9.765 19 7.06 22.647c-.118.118-.294.235-.412.235H0c.059-.117.118-.235.176-.294C2.882 19 5.588 15.353 8.294 11.765c.177-.236.177-.412 0-.647C5.588 7.529 2.882 3.882.176.294.118.235.06.176 0 0Zm24 22.941h-6.53c-.235 0-.411-.059-.529-.294a42.13 42.13 0 0 0-1.47-1.941c1.117-1.53 2.294-3.059 3.47-4.588A254.22 254.22 0 0 0 24 22.94ZM18.882 6.824c-1.176-1.53-2.294-3.06-3.47-4.589L17 .118c.059-.06.177-.06.235-.06h6.53c.058 0 .058 0 .117.06a395.002 395.002 0 0 1-5 6.706Z"/></svg>