<svg xmlns="http://www.w3.org/2000/svg" fill="none" viewBox="0 0 24 24"><path fill="#000000" fill-rule="evenodd" d="m22.04 5.386.709 1.215-9.343 5.395 9.343 5.394-.71 1.215-9.334-5.394V24h-1.41V0h1.41v10.78l9.334-5.394ZM6.611 1.257l-1.214.701 3.385 5.863 1.213-.701-3.384-5.863ZM0 11.294h6.77v1.402H0v-1.402ZM7.114 14l-5.862 3.385.7 1.214 5.863-3.385-.7-1.214ZM5.38 22.04l3.385-5.863v.002l1.214.7-3.385 5.863-1.214-.702ZM1.26 6.605l.702-1.215 5.863 3.386-.702 1.213-5.862-3.384Z" clip-rule="evenodd"/></svg>